<svg id="horizontal-logo" xmlns="http://www.w3.org/2000/svg" viewBox="0 0 1124 346">
	<style>
		.txt {
			fill:#fff;
			stroke:red;
			stroke-miterlimit:10;
			stroke-width:8px;
			stroke-linecap:square;
		}

		.l.horizontal {
			stroke-dasharray:1157 1159;
			stroke-dashoffset:1158;
			animation:draw 2000ms ease 0ms forwards;
		}
		.s.horizontal {
			stroke-dasharray:1692 1694;
			stroke-dashoffset:1693;
			animation:draw 2000ms ease 333ms forwards;
		}
		.a.horizontal {
			stroke-dasharray:1655 1657;
			stroke-dashoffset:1656;
			animation:draw 2000ms ease 666ms forwards;
		}
		.v.horizontal {
			stroke-dasharray:1374 1376;
			stroke-dashoffset:1375;
			animation:draw 2000ms ease 1000ms forwards;
		}

		@keyframes draw {
			100%{stroke-dashoffset:0;}
		}
	</style>
	<path class="txt l horizontal" d="M4.5,4h87v264.5h154v73H4.5V4z"></path>
	<path class="txt s horizontal" d="M295.5,268.5H444c3.7,0,5.5-1.5,5.5-4.5v-49c0-3-1.8-4.5-5.5-4.5H335c-11.7,0-21.2-3.7-28.5-11	c-7.3-7.3-11-16.8-11-28.5V43.5c0-11.7,3.7-21.2,11-28.5s16.9-11,28.6-11H532v72H387.5c-3.3,0-5,1.8-5,5.6v49.9c0,1.1,0.5,2.2,1.2,3	c0.9,1.1,2.3,1.6,3.8,1.5h109.3c11.7,0,21.2,3.7,28.6,11c7.4,7.3,11.1,16.8,11.1,28.5V302c0,11.7-3.7,21.2-11,28.5s-16.9,11-28.6,11 H295.5V268.5z"></path>
	<path class="txt a horizontal" d="M827.5,341.5h-83.7v-84h-73.6v84h-83.7v-298c0-11.7,3.5-21.2,10.6-28.5c7.1-7.3,16.2-11,27.4-11h165 c11.2,0,20.4,3.7,27.4,11c7.1,7.3,10.6,16.8,10.6,28.5V341.5z M743.8,184.5V83c0.1-2.8-1.1-5.5-3.1-7.3c-2.4-1.9-5.4-2.9-8.4-2.7 h-52c-2.7-0.1-5.3,1-7.2,3c-1.8,1.8-2.9,4.4-2.9,7v101.5L743.8,184.5z"></path>
	<path class="txt v horizontal" d="M1118.5,4l-82.7,337.5h-75.8L877.5,4h83.9L998,218.5L1034.8,4H1118.5z"></path>
</svg>